<?xml version="1.0" encoding="UTF-8"?>
<svg width="29px" height="24px" viewBox="0 0 29 24" version="1.1" xmlns="http://www.w3.org/2000/svg" xmlns:xlink="http://www.w3.org/1999/xlink">
    <!-- Generator: Sketch 52.2 (67145) - http://www.bohemiancoding.com/sketch -->
    <title>Group 12</title>
    <desc>Created with Sketch.</desc>
    <g id="Symbols" stroke="none" stroke-width="1" fill="none" fill-rule="evenodd">
        <g id="FAB_download" transform="translate(-21.000000, -23.000000)" fill="#FFFFFF">
            <g id="Group-20">
                <g id="Group-12" transform="translate(21.000000, 23.000000)">
                    <g id="Group-4">
                        <g id="Group-5">
                            <path d="M28.4845745,8.28333333 L26.1849615,8.28333333 C26.0263663,8.28333333 25.8960954,8.41248408 25.8960954,8.56970921 L25.8960954,21.1196592 L2.87734543,21.1196592 L2.87734543,8.56970921 C2.87734543,8.41248121 2.74707134,8.28333333 2.58847904,8.28333333 L0.288866042,8.28333333 C0.1302709,8.28333333 0,8.41248408 0,8.56970921 L0,22.5459467 C0,23.3320867 0.645713942,23.9722055 1.43866094,23.9722055 L27.3347912,23.9722055 C28.1277672,23.9722055 28.7734522,23.332058 28.7734522,22.5459467 L28.7734522,8.56970921 C28.7734522,8.41248121 28.6431784,8.28333333 28.4845861,8.28333333 L28.4845745,8.28333333 Z" id="Fill-1"></path>
                            <path d="M13.1565859,17.6995812 C13.4284609,17.9691125 13.7909609,18.115105 14.1761099,18.115105 C14.5556039,18.115105 14.9237589,17.9634947 15.1956339,17.6995812 L21.2053039,11.7362562 C21.4318664,11.5116469 21.4318664,11.1522862 21.2053039,10.9276625 L19.9875359,9.7147575 C19.7609734,9.49014812 19.3984879,9.49014812 19.1719109,9.7147575 L15.6147709,13.2412325 L15.6147709,0.5727575 C15.6147709,0.25829 15.359887,-2.46913601e-13 15.0370329,-2.46913601e-13 L13.3095029,-2.46913601e-13 C12.9923009,-2.46913601e-13 12.7317649,0.2583015 12.7317649,0.5727575 L12.7317649,13.246695 L9.16331487,9.703545 C8.93675237,9.47893562 8.57426687,9.47893562 8.34768987,9.703545 L7.12992187,10.91645 C6.90335937,11.1410594 6.90335937,11.50042 7.12992187,11.7250437 L13.1565859,17.6995812 Z" id="Fill-3"></path>
                        </g>
                    </g>
                </g>
            </g>
        </g>
    </g>
</svg>