<?xml version="1.0" encoding="UTF-8"?>
<svg width="15px" height="12px" viewBox="0 0 15 12" version="1.1" xmlns="http://www.w3.org/2000/svg" xmlns:xlink="http://www.w3.org/1999/xlink">
    <!-- Generator: Sketch 52.2 (67145) - http://www.bohemiancoding.com/sketch -->
    <title>Group 5</title>
    <desc>Created with Sketch.</desc>
    <g id="Fotos" stroke="none" stroke-width="1" fill="none" fill-rule="evenodd">
        <g id="3---Mobile-fotos-dropdown-de-direcciones" transform="translate(-60.000000, -856.000000)" fill="#114EEF">
            <g id="Group-4" transform="translate(21.000000, 449.000000)">
                <g id="Group-5" transform="translate(39.000000, 407.000000)">
                    <path d="M14.7334006,3.8 L13.5439456,3.8 C13.4619136,3.8 13.3945321,3.867383 13.3945321,3.9494135 L13.3945321,10.4972135 L1.48828212,10.4972135 L1.48828212,3.9494135 C1.48828212,3.8673815 1.42089897,3.8 1.33886847,3.8 L0.14941347,3.8 C0.0673815,3.8 1.80300219e-13,3.867383 1.80300219e-13,3.9494135 L1.80300219e-13,11.2413635 C1.80300219e-13,11.6515235 0.33398997,11.9854985 0.74413497,11.9854985 L14.1386851,11.9854985 C14.5488451,11.9854985 14.8828201,11.6515085 14.8828201,11.2413635 L14.8828201,3.9494135 C14.8828201,3.8673815 14.8154371,3.8 14.7334066,3.8 L14.7334006,3.8 Z" id="Fill-1"></path>
                    <path d="M6.80513063,8.712825 C6.94575563,8.85345 7.13325563,8.92962 7.33247063,8.92962 C7.52876063,8.92962 7.71918563,8.850519 7.85981063,8.712825 L10.9682606,5.601525 C11.0854481,5.4843375 11.0854481,5.296845 10.9682606,5.17965 L10.3383806,4.54683 C10.2211931,4.4296425 10.0337006,4.4296425 9.91650563,4.54683 L8.07660563,6.38673 L8.07660563,0.29883 C8.07660563,0.13476 7.94476913,-5.68434189e-14 7.77777563,-5.68434189e-14 L6.88422563,-5.68434189e-14 C6.72015563,-5.68434189e-14 6.58539563,0.134766 6.58539563,0.29883 L6.58539563,6.38958 L4.73964563,4.54098 C4.62245813,4.4237925 4.43496563,4.4237925 4.31777063,4.54098 L3.68789063,5.1738 C3.57070313,5.2909875 3.57070313,5.47848 3.68789063,5.595675 L6.80513063,8.712825 Z" id="Fill-3"></path>
                </g>
            </g>
        </g>
    </g>
</svg>