<svg xmlns="http://www.w3.org/2000/svg" xmlns:xlink="http://www.w3.org/1999/xlink" width="20" height="14" viewBox="0 0 20 14">
  <g transform="translate(-1202 -562)">
    <path id="olrda" d="M1211.998 573.107a4.025 4.025 0 0 1-4.05-4.05 4.025 4.025 0 0 1 4.05-4.051 4.025 4.025 0 0 1 4.05 4.05 4.025 4.025 0 0 1-4.05 4.05zm0-10.417c-5.786 0-9.838 6.366-9.838 6.366s2.951 6.366 9.838 6.366c6.945 0 9.839-6.366 9.839-6.366s-3.993-6.366-9.839-6.366z"/>
    <path id="olrdb" d="M1213.732 569.056a1.736 1.736 0 1 1-3.471.001 1.736 1.736 0 0 1 3.471 0"/>
  </g>
</svg>