<svg xmlns="http://www.w3.org/2000/svg" xmlns:xlink="http://www.w3.org/1999/xlink" width="14" height="22" viewBox="0 0 14 22">
  <g transform="translate(-317 -1388)">
    <path d="M323.87 1389.146c2.694 0 5.695 2.133 5.695 5.192 0 2.76-3.54 7.387-5.69 9.842-2.13-2.465-5.642-7.108-5.642-9.879 0-3.804 3.037-5.155 5.637-5.155m0-1.236c-3.366 0-6.87 1.982-6.87 6.395 0 4.414 6.87 11.73 6.87 11.73s6.928-7.291 6.928-11.694c0-3.732-3.562-6.431-6.928-6.431"/>
    <path d="M325.755 1394.572a1.86 1.86 0 0 1-1.859 1.862 1.86 1.86 0 0 1-1.856-1.862 1.86 1.86 0 0 1 1.856-1.862 1.86 1.86 0 0 1 1.859 1.862"/>
    <path d="M323.899 1409.199c-3.869 0-6.899-1.891-6.899-4.305 0-1.623 1.416-3.089 3.697-3.823l.333 1.04c-1.813.584-2.94 1.65-2.94 2.783 0 1.741 2.661 3.213 5.809 3.213s5.81-1.472 5.81-3.213c0-1.134-1.13-2.2-2.948-2.786l.333-1.038c2.283.732 3.704 2.198 3.704 3.824 0 2.414-3.03 4.305-6.899 4.305"/>
  </g>
</svg>