<?xml version="1.0" encoding="UTF-8"?>
<svg width="15px" height="15px" viewBox="0 0 15 15" version="1.1" xmlns="http://www.w3.org/2000/svg" xmlns:xlink="http://www.w3.org/1999/xlink">
    <!-- Generator: Sketch 52.2 (67145) - http://www.bohemiancoding.com/sketch -->
    <title>Fill 1</title>
    <desc>Created with Sketch.</desc>
    <g id="Symbols" stroke="none" stroke-width="1" fill="none" fill-rule="evenodd">
        <g id="Buscador_desktop" transform="translate(-446.000000, -2.000000)" fill="#114BEF">
            <path d="M456.795134,11.6612881 L461,15.8661537 L459.866154,17 L455.661288,12.7951344 C454.649603,13.5687928 453.385737,14.0276476 452.013824,14.0276476 C448.692108,14.0276476 446,11.3355393 446,8.01382378 C446,4.69210826 448.692108,2 452.013824,2 C455.335539,2 458.027648,4.69210826 458.027648,8.01382378 C458.027648,9.38573735 457.568793,10.6495625 456.795134,11.6612881 Z M452.013744,12.4239612 C454.449021,12.4239612 456.423881,10.4491017 456.423881,8.01382378 C456.423881,5.57854588 454.449021,3.60368634 452.013744,3.60368634 C449.578466,3.60368634 447.603606,5.57854588 447.603606,8.01382378 C447.603606,10.4491017 449.578466,12.4239612 452.013744,12.4239612 Z" id="Fill-1"></path>
        </g>
    </g>
</svg>