<?xml version="1.0" encoding="UTF-8"?>
<svg width="55px" height="41px" viewBox="0 0 55 41" version="1.1" xmlns="http://www.w3.org/2000/svg" xmlns:xlink="http://www.w3.org/1999/xlink">
    <!-- Generator: Sketch 52.2 (67145) - http://www.bohemiancoding.com/sketch -->
    <title>Group 4</title>
    <desc>Created with Sketch.</desc>
    <g id="Splash---Main" stroke="none" stroke-width="1" fill="none" fill-rule="evenodd" fill-opacity="0">
        <g id="Splash" transform="translate(-1151.000000, -342.000000)" fill="#FFFFFF" fill-rule="nonzero" stroke="#FFFFFF" stroke-width="2.2">
            <g id="Group-4" transform="translate(1151.000000, 342.000000)">
                <path d="M3.8458278,1.1 C2.79266404,1.1 2.42795218,1.17042911 2.05349019,1.37069357 C1.75629662,1.52963443 1.52963443,1.75629662 1.37069357,2.05349019 C1.17042911,2.42795218 1.1,2.79266404 1.1,3.8458278 L1.1,37.1541722 C1.1,38.207336 1.17042911,38.5720478 1.37069357,38.9465098 C1.52963443,39.2437034 1.75629662,39.4703656 2.05349019,39.6293064 C2.42795218,39.8295709 2.79266404,39.9 3.8458278,39.9 L51.1541722,39.9 C52.207336,39.9 52.5720478,39.8295709 52.9465098,39.6293064 C53.2437034,39.4703656 53.4703656,39.2437034 53.6293064,38.9465098 C53.8295709,38.5720478 53.9,38.207336 53.9,37.1541722 L53.9,3.8458278 C53.9,2.79266404 53.8295709,2.42795218 53.6293064,2.05349019 C53.4703656,1.75629662 53.2437034,1.52963443 52.9465098,1.37069357 C52.5720478,1.17042911 52.207336,1.1 51.1541722,1.1 L3.8458278,1.1 Z" id="Rectangle"></path>
                <path d="M1.1,34.912847 L42.0894922,38.1098419 L19.475344,22.3911149 C18.1235352,21.4514945 16.3272961,21.4619172 14.9864822,22.4171614 L1.1,32.3103932 L1.1,34.912847 Z" id="Path-3"></path>
                <path d="M30.6523927,30.1166725 L53.9,24.3472228 L53.9,22.6307043 L45.9864297,14.1847408 C45.9552229,14.1517808 45.9552229,14.1517808 45.923335,14.1194792 C44.7922073,12.9855678 42.9560302,12.9833112 41.8221188,14.1144389 L27.7881565,28.1139491 L30.6523927,30.1166725 Z" id="Path-4"></path>
                <circle id="Oval" cx="12" cy="12" r="3"></circle>
            </g>
        </g>
    </g>
</svg>