<?xml version="1.0" encoding="UTF-8"?>
<svg width="104px" height="20px" viewBox="0 0 104 20" version="1.1" xmlns="http://www.w3.org/2000/svg" xmlns:xlink="http://www.w3.org/1999/xlink">
    <!-- Generator: Sketch 52.2 (67145) - http://www.bohemiancoding.com/sketch -->
    <title>Group 15</title>
    <desc>Created with Sketch.</desc>
    <defs>
        <polygon id="path-1" points="0.0105168624 0.10804878 16.1880174 0.10804878 16.1880174 19.9742073 0.0105168624 19.9742073"></polygon>
        <polygon id="path-3" points="0.0250030308 0.0728414634 23.2101276 0.0728414634 23.2101276 19.0078415 0.0250030308 19.0078415"></polygon>
    </defs>
    <g id="Splash---Main" stroke="none" stroke-width="1" fill="none" fill-rule="evenodd">
        <g id="Splash" transform="translate(-66.000000, -55.000000)">
            <g id="Group-15" transform="translate(66.000000, 55.000000)">
                <polygon id="Fill-1" fill="#114BEF" points="3.15537401 1 0 19 11.5153957 19 14 14.6967031 6.11961472 14.6967031 8.53737385 1"></polygon>
                <g id="Group-14" transform="translate(12.000000, 0.000000)">
                    <path d="M9.15462289,11.7094634 L13.0844758,11.7094634 L12.232454,7.28617073 C12.1475516,6.84641463 12.0839948,6.45409756 12.0416635,6.10921951 C11.9990924,5.76446341 11.9736696,5.44117073 11.9652753,5.13921951 C11.7873161,5.65653659 11.623987,6.11141463 11.4756476,6.50360976 C11.3273083,6.89617073 11.2106275,7.18714634 11.125965,7.37678049 L9.15462289,11.7094634 Z M0.0866172142,19.4956829 L9.40909019,0.560682927 L15.6409008,0.560682927 L19.5962963,19.4956829 L14.5471231,19.4956829 L13.7967923,15.9259268 L7.28509172,15.9259268 L5.50454015,19.4956829 L0.0866172142,19.4956829 Z" id="Fill-2" fill="#114BEF"></path>
                    <polygon id="Fill-4" fill="#114BEF" points="21.5656117 19.4956463 23.8294353 4.95808537 19.6579464 4.95808537 20.3700232 0.560646341 33.520658 0.560646341 32.8084614 4.95808537 28.827763 4.95808537 26.5638195 19.4956463"></polygon>
                    <g id="Group-8" transform="translate(32.617863, 0.000000)">
                        <mask id="mask-2" fill="white">
                            <use xlink:href="#path-1"></use>
                        </mask>
                        <g id="Clip-7"></g>
                        <path d="M16.1880174,1.45310976 L15.3485871,6.67823171 C14.6363905,6.04896341 13.8605171,5.5725 13.0212067,5.24908537 C12.1817764,4.92579268 11.3084092,4.76408537 10.4012248,4.76408537 C8.85799221,4.76408537 7.5861354,5.31176829 6.58577433,6.40676829 C5.58517343,7.50176829 5.08499289,8.89859756 5.08499289,10.5972561 C5.08499289,12.1321341 5.50470804,13.3196951 6.34413833,14.1604268 C7.1834487,15.0011585 8.37052305,15.4215244 9.90512154,15.4215244 C10.5665926,15.4215244 11.2470108,15.3396951 11.9464961,15.1757927 C12.6459814,15.0120122 13.3814422,14.7662805 14.1529986,14.4384756 L13.377365,19.3404268 C12.7413167,19.547378 12.0396729,19.7045732 11.2724336,19.812378 C10.5048345,19.9201829 9.67619691,19.9742073 8.78592113,19.9742073 C6.13212222,19.9742073 4.00596521,19.1378659 2.40780986,17.464939 C0.809534581,15.792378 0.0105168624,13.5720122 0.0105168624,10.8040854 C0.0105168624,9.4677439 0.216057365,8.19371951 0.627258289,6.98213415 C1.03845921,5.77091463 1.64260919,4.66932927 2.43970821,3.6777439 C3.37219534,2.52237805 4.53600548,1.63859756 5.93077887,1.02628049 C7.32543234,0.414085366 8.88773203,0.107987805 10.6174381,0.107987805 C11.6008906,0.107987805 12.5547233,0.220182927 13.478936,0.444329268 C14.4030289,0.668597561 15.306136,1.00481707 16.1880174,1.45310976" id="Fill-6" fill="#114BEF" mask="url(#mask-2)"></path>
                    </g>
                    <path d="M58.9783483,4.76413415 C57.4605384,4.76413415 56.1886816,5.32035366 55.1628978,6.43254878 C54.1368741,7.54486585 53.6239822,8.9245 53.6239822,10.5713293 C53.6239822,12.0286463 54.0330246,13.1926707 54.8512293,14.0634024 C55.669434,14.9345 56.7610531,15.3697439 58.1262066,15.3697439 C59.6183539,15.3697439 60.8860136,14.7942561 61.9288258,13.6430366 C62.9718779,12.492061 63.4931641,11.0887683 63.4931641,9.43315854 C63.4931641,8.07096341 63.0691319,6.95218293 62.2214272,6.07681707 C61.3736027,5.20181707 60.2924164,4.76413415 58.9783483,4.76413415 M57.8337251,19.9999878 C56.5025086,19.9999878 55.2920501,19.8145 54.2027094,19.4438902 C53.1131289,19.0731585 52.1443064,18.517061 51.2964818,17.7754756 C50.406326,16.9821829 49.7110379,16.0035244 49.2107374,14.8395 C48.710437,13.6754756 48.4604066,12.4381585 48.4604066,11.1274268 C48.4604066,9.71340244 48.6744614,8.39206098 49.1025708,7.16328049 C49.5306803,5.93462195 50.1687672,4.82023171 51.0167117,3.8199878 C52.0087984,2.6299878 53.219017,1.71815854 54.6478473,1.0845 C56.0764378,0.450719512 57.6259062,0.133890244 59.2962525,0.133890244 C62.0941936,0.133890244 64.3559786,0.953158537 66.0813676,2.59132927 C67.8066366,4.22962195 68.6694511,6.3595 68.6694511,8.98047561 C68.6694511,10.3859634 68.4510793,11.7074268 68.0145755,12.9447439 C67.5778319,14.182061 66.9399848,15.2965732 66.1005545,16.2880366 C65.0745309,17.5037683 63.8621537,18.4265732 62.4631832,19.0558415 C61.0640927,19.6851098 59.5207402,19.9999878 57.8337251,19.9999878" id="Fill-9" fill="#114BEF"></path>
                    <g id="Group-13" transform="translate(67.993854, 0.487805)">
                        <mask id="mask-4" fill="white">
                            <use xlink:href="#path-3"></use>
                        </mask>
                        <g id="Clip-12"></g>
                        <path d="M0.0250030308,19.0078415 L5.72281601,0.0728414634 L11.2550214,0.0728414634 L12.5014554,7.4062561 C12.5778436,7.85467073 12.6477562,8.3267439 12.711313,8.82247561 C12.7748699,9.31845122 12.8363881,9.83357317 12.8957478,10.3680854 C12.9889246,9.98881707 13.1138798,9.58137805 13.2709732,9.14589024 C13.4278267,8.71052439 13.6502758,8.16515854 13.9385601,7.50979268 L17.2707386,0.0728414634 L22.7650497,0.0728414634 L23.2101876,19.0078415 L18.6189836,19.0078415 L18.5680182,9.98015854 C18.5680182,9.4715 18.5764125,8.96930488 18.5935608,8.47332927 C18.6103494,7.97759756 18.6357722,7.47967073 18.6698291,6.97942683 C18.4832357,7.61771951 18.1652115,8.41515854 17.7158765,9.37210976 C17.631094,9.5619878 17.5675372,9.70418293 17.5252059,9.79893902 L13.2773289,19.0078415 L10.2630546,19.0078415 L8.52075709,9.8119878 C8.42722057,9.3462561 8.34471657,8.87869512 8.27264548,8.40869512 C8.20057439,7.93869512 8.13485899,7.46662195 8.0756192,6.99247561 C7.98208268,7.55296341 7.88255023,8.08320732 7.77678201,8.58332927 C7.67065404,9.08332927 7.56236753,9.54893902 7.45240217,9.98015854 L4.87055443,19.0078415 L0.0250030308,19.0078415 Z" id="Fill-11" fill="#114BEF" mask="url(#mask-4)"></path>
                    </g>
                </g>
            </g>
        </g>
    </g>
</svg>