<?xml version="1.0" encoding="UTF-8"?>
<svg width="55px" height="41px" viewBox="0 0 55 41" version="1.1" xmlns="http://www.w3.org/2000/svg" xmlns:xlink="http://www.w3.org/1999/xlink">
    <!-- Generator: Sketch 52.2 (67145) - http://www.bohemiancoding.com/sketch -->
    <title>Group</title>
    <desc>Created with Sketch.</desc>
    <g id="Splash---Main" stroke="none" stroke-width="1" fill="none" fill-rule="evenodd">
        <g id="Splash" transform="translate(-666.000000, -589.000000)">
            <g id="Group" transform="translate(666.000000, 589.000000)">
                <path d="M3.8458278,1.1 C2.79266404,1.1 2.42795218,1.17042911 2.05349019,1.37069357 C1.75629662,1.52963443 1.52963443,1.75629662 1.37069357,2.05349019 C1.17042911,2.42795218 1.1,2.79266404 1.1,3.8458278 L1.1,37.1541722 C1.1,38.207336 1.17042911,38.5720478 1.37069357,38.9465098 C1.52963443,39.2437034 1.75629662,39.4703656 2.05349019,39.6293064 C2.42795218,39.8295709 2.79266404,39.9 3.8458278,39.9 L51.1541722,39.9 C52.207336,39.9 52.5720478,39.8295709 52.9465098,39.6293064 C53.2437034,39.4703656 53.4703656,39.2437034 53.6293064,38.9465098 C53.8295709,38.5720478 53.9,38.207336 53.9,37.1541722 L53.9,3.8458278 C53.9,2.79266404 53.8295709,2.42795218 53.6293064,2.05349019 C53.4703656,1.75629662 53.2437034,1.52963443 52.9465098,1.37069357 C52.5720478,1.17042911 52.207336,1.1 51.1541722,1.1 L3.8458278,1.1 Z" id="Rectangle-Copy-8" stroke="#FFFFFF" stroke-width="2.2" fill-opacity="0" fill="#FFFFFF" fill-rule="nonzero"></path>
                <g id="Group-3" transform="translate(29.000000, 11.000000)" fill="#FFFFFF">
                    <path d="M8.6742792,24.0919747 L9.4964824,25 L10.3186856,24.0919747 C10.4062584,23.995025 12.4982745,21.6705764 14.5937935,18.7349337 C17.5177432,14.6854477 18.9968745,11.5651733 18.9968745,9.47036113 C19.0625548,6.98155717 18.090726,4.57187239 16.3028092,2.78791022 C14.5148613,1.00497109 12.0616406,0 9.50000088,0 C6.93848574,0 4.48538957,1.00497109 2.69719257,2.78791022 C0.909244657,4.57202372 -0.062571758,6.98146636 0.00312727876,9.47036113 C-0.00660302881,11.5654457 1.46631644,14.6854477 4.39998082,18.7349337 C6.51022765,21.662374 8.58759383,23.9926974 8.67415465,24.0919747 L8.6742792,24.0919747 Z M9.4964824,2.35145015 C11.4376865,2.35381404 13.2986195,3.10459582 14.6717605,4.4394219 C16.0437183,5.77427824 16.8148569,7.58330491 16.8172856,9.47017953 C16.8172856,12.4969274 12.1127986,18.668769 9.49635785,21.752117 C8.70211566,20.81098 7.43839002,19.2644935 6.18089177,17.51467 C3.59627299,13.9273684 2.17325053,11.0710265 2.17325053,9.46654743 L2.17325053,9.46773089 C2.17568233,7.5807352 2.94803211,5.77055837 4.32120425,4.43697326 C5.69440753,3.10332762 7.5554028,2.35254281 9.4964824,2.35136237 L9.4964824,2.35145015 Z" id="Fill-1"></path>
                    <path d="M12,9.50055454 C12,10.8802532 10.8811141,12 9.5,12 C8.11888589,12 7,10.8802532 7,9.50055454 C7,8.11974679 8.11888589,7 9.5,7 C10.8811141,7 12,8.11974679 12,9.50055454" id="Fill-2"></path>
                </g>
                <path d="" id="Path-5" stroke="#979797" fill-rule="nonzero"></path>
                <path d="M1,25 L14.2473531,39.314356" id="Path-6" stroke="#FFFFFF" stroke-width="2.2" fill-rule="nonzero"></path>
                <path d="M18,1 L27.0324618,9.8797587" id="Path-6-Copy" stroke="#FFFFFF" stroke-width="2.2" fill-rule="nonzero"></path>
                <path d="M5.61806778,30.005816 L36,1.07452692" id="Path-7" stroke="#FFFFFF" stroke-width="2.2" fill-rule="nonzero"></path>
            </g>
        </g>
    </g>
</svg>