<svg version="1.1" xmlns="http://www.w3.org/2000/svg" xmlns:xlink="http://www.w3.org/1999/xlink" x="0px" y="0px"
viewBox="0 0 35 46" style="enable-background:new 0 0 35 46;" xml:space="preserve">
	<path transform="translate(-809 -1742)" fill="#9013fe" d="M826.5,1765c-3.1,0-5.6-2.5-5.6-5.6c0-3.1,2.5-5.6,5.6-5.6c3.1,0,5.6,2.5,5.6,5.6	C832.1,1762.5,829.6,1765,826.5,1765L826.5,1765z M826.5,1742c-9.6,0-17.5,7.9-17.5,17.4c0,8.7,13.5,25.5,15.2,27.5
	c0.6,0.6,1.4,1.1,2.3,1.1c0.8,0,1.7-0.3,2.3-1.1c1.7-2,15.2-18.8,15.2-27.5C844,1749.9,836.1,1742,826.5,1742z"/>
</svg>
