<svg version="1.1" id="Слой_1" xmlns="http://www.w3.org/2000/svg" xmlns:xlink="http://www.w3.org/1999/xlink" x="0px" y="0px"
viewBox="0 0 35 46" style="enable-background:new 0 0 35 46;" xml:space="preserve">
	<path fill="#ff9856" transform="translate(-809 -1742)" d="M826.5,1765c-1.4,0-2.6-1.2-2.6-2.6c0-1.4,1.2-2.6,2.6-2.6c1.4,0,2.6,1.2,2.6,2.6	C829.1,1763.8,827.9,1765,826.5,1765L826.5,1765z M826.5,1754.5c-4.4,0-8,3.6-8,7.9c0,4,6.2,11.6,7,12.5c0.3,0.3,0.6,0.5,1,0.5	c0.4,0,0.8-0.1,1-0.5c0.8-0.9,7-8.6,7-12.5C834.5,1758.1,830.9,1754.5,826.5,1754.5z"/>
</svg>
