<?xml version="1.0" encoding="UTF-8"?>
<svg width="55px" height="42px" viewBox="0 0 55 42" version="1.1" xmlns="http://www.w3.org/2000/svg" xmlns:xlink="http://www.w3.org/1999/xlink">
    <!-- Generator: Sketch 52.2 (67145) - http://www.bohemiancoding.com/sketch -->
    <title>Fill 3</title>
    <desc>Created with Sketch.</desc>
    <g id="Splash---Main" stroke="none" stroke-width="1" fill="none" fill-rule="evenodd">
        <g id="Splash" transform="translate(-666.000000, -342.000000)" fill="#FFFFFF">
            <g id="Fill-3" transform="translate(666.000000, 342.000000)">
                <path d="M16.0424,5.7299 C16.0424,6.032829 15.919937,6.325 15.705096,6.539885 C15.4902495,6.754726 15.2002125,6.875044 14.895111,6.875044 L12.604856,6.875044 C11.971091,6.875044 11.457611,6.3615695 11.457611,5.729944 C11.457611,5.096179 11.9710855,4.582699 12.604856,4.582699 L14.897256,4.582699 L14.8951055,4.582699 C15.200185,4.582699 15.4902055,4.705162 15.7050905,4.920003 C15.9199315,5.1348495 16.0423945,5.4248865 16.0423945,5.729988 L16.0424,5.7299 Z M55,3.4375 L55,37.8125 C55,39.711705 53.461705,41.25 51.5625,41.25 L3.4375,41.25 C1.538295,41.25 0,39.711705 0,37.8125 L0,3.4375 C0,1.538295 1.538295,0 3.4375,0 L51.5625,0 C53.461705,0 55,1.538295 55,3.4375 Z M52.707688,11.4576 L2.2923989,11.4576 L2.2923989,37.8125 C2.2923989,38.115429 2.4127114,38.4076 2.6275579,38.622485 C2.8424044,38.83737 3.1345919,38.957644 3.4375429,38.957644 L51.562544,38.957644 C51.865473,38.957644 52.157644,38.8373315 52.372529,38.622485 C52.587414,38.4076385 52.707688,38.115451 52.707688,37.8125 L52.707688,11.4576 Z M52.7076,3.4375 C52.7076,3.134571 52.5872875,2.8424 52.372441,2.627515 C52.1575945,2.41263 51.865407,2.292356 51.562456,2.292356 L3.437456,2.292356 C2.803691,2.292356 2.292356,2.8036855 2.292356,3.437456 L2.292356,9.167356 L52.7076,9.167356 L52.7076,3.4375 Z M8.0201,4.5826 L5.729845,4.5826 C5.09608,4.5826 4.5826,5.0960745 4.5826,5.729845 C4.5826,6.361465 5.0960745,6.874945 5.729845,6.874945 L8.0201,6.874945 C8.653865,6.874945 9.167345,6.3614705 9.167345,5.729845 C9.167345,5.09608 8.6538705,4.5826 8.0201,4.5826 Z M21.7701,4.5826 L19.479845,4.5826 C18.84608,4.5826 18.3326,5.0960745 18.3326,5.729845 C18.3326,6.361465 18.8460745,6.874945 19.479845,6.874945 L21.772245,6.874945 L21.7700945,6.874945 C22.4038595,6.874945 22.9173395,6.3614705 22.9173395,5.729845 C22.9173395,5.09608 22.403865,4.5826 21.7700945,4.5826 L21.7701,4.5826 Z M16.0424,26.92635 C16.0381045,24.440625 16.98554,22.0451 18.689275,20.23395 C20.39301,18.424945 22.726165,17.33358 25.207875,17.187445 L25.207875,14.895045 C25.207875,14.263425 25.7213495,13.749945 26.35512,13.749945 C29.698075,13.749945 32.90342,15.0777 35.26677,17.44094 C37.630065,19.80638 38.957765,23.01189 38.957765,26.35479 C38.957765,26.657719 38.8374525,26.94989 38.622606,27.164775 C38.4077595,27.37966 38.115572,27.499934 37.812621,27.499934 L35.520221,27.499934 C35.4192465,30.980389 33.468446,34.140634 30.402636,35.790634 C27.338971,37.442779 23.626636,37.333219 20.663786,35.5048925 C17.701101,33.6765825 15.939396,30.4066675 16.042521,26.9259925 L16.0424,26.92635 Z M27.5,25.2076 L36.59865,25.2076 C36.336542,22.885115 35.294545,20.71949 33.6424,19.0674 C31.98811,17.41311 29.822485,16.371135 27.5,16.11115 L27.5,25.2076 Z M18.3326,26.92635 C18.257404,28.90294 18.96851,30.82794 20.311335,32.278125 C21.65625,33.72831 23.518935,34.58554 25.495525,34.660725 C29.607655,34.819708 33.070675,31.61422 33.229625,27.499725 L26.354625,27.499725 C25.72086,27.499725 25.20738,26.9862505 25.20738,26.354625 L25.20738,19.479625 C21.31657,19.773963 18.31533,23.02454 18.33238,26.926075 L18.3326,26.92635 Z" id="Fill-1"></path>
            </g>
        </g>
    </g>
</svg>