<svg width="55" height="41" viewBox="0 0 55 41" xmlns="http://www.w3.org/2000/svg">
    <title>
        Group
    </title>
    <g fill="none" fill-rule="evenodd">
        <path d="M3.846 1.1c-1.053 0-1.418.07-1.793.27a1.626 1.626 0 0 0-.682.683c-.2.375-.271.74-.271 1.793v33.308c0 1.053.07 1.418.27 1.793.16.297.386.523.683.682.375.2.74.271 1.793.271h47.308c1.053 0 1.418-.07 1.793-.27.297-.16.523-.386.682-.683.2-.375.271-.74.271-1.793V3.846c0-1.053-.07-1.418-.27-1.793a1.626 1.626 0 0 0-.683-.682c-.375-.2-.74-.271-1.793-.271H3.846z" stroke="#FFF" stroke-width="2.2" fill="none"/>
        <g fill="#FFF">
            <path d="M37.674 35.092l.822.908.823-.908a66.641 66.641 0 0 0 4.275-5.357c2.924-4.05 4.403-7.17 4.403-9.265a9.1 9.1 0 0 0-2.694-6.682A9.636 9.636 0 0 0 38.5 11a9.637 9.637 0 0 0-6.803 2.788 9.1 9.1 0 0 0-2.694 6.682c-.01 2.095 1.463 5.215 4.397 9.265 2.11 2.927 4.188 5.258 4.274 5.357zm.822-21.74a7.44 7.44 0 0 1 5.176 2.087 7.03 7.03 0 0 1 2.145 5.031c0 3.027-4.704 9.199-7.32 12.282a71.124 71.124 0 0 1-3.316-4.237c-2.585-3.588-4.008-6.444-4.008-8.048a7.026 7.026 0 0 1 2.148-5.03 7.438 7.438 0 0 1 5.175-2.086z"/>
            <path d="M41 20.5a2.5 2.5 0 1 1-5 0 2.5 2.5 0 0 1 5 0"/>
        </g>
        <path d="M1 25l13.247 14.314" stroke="#FFF" stroke-width="2.2"/>
        <path d="M18 1l9.032 8.88" stroke="#FFF" stroke-width="2.2"/>
        <path d="M5.618 30.006L36 1.075" stroke="#FFF" stroke-width="2.2"/>
    </g>
</svg>
