<svg xmlns="http://www.w3.org/2000/svg" width="16" height="21.333" viewBox="0 0 16 21.333">
    <g>
        <ellipse cx="1.6" cy=".533" rx="1.6" ry=".533" transform="translate(6.4 20.267)" opacity=".297"/>
        <path d="M8 21.041a1.578 1.578 0 0 1-1.032-.513C6.9 20.447 0 12.187 0 7.954a7.872 7.872 0 0 1 2.355-5.613 7.975 7.975 0 0 1 11.289 0A7.876 7.876 0 0 1 16 7.954c0 2.085-1.737 5.2-3.193 7.442a56.1 56.1 0 0 1-3.774 5.132A1.166 1.166 0 0 1 8 21.041zM8 5.387a2.566 2.566 0 1 0 2.58 2.567A2.577 2.577 0 0 0 8 5.387z" fill="#ff9856"/>
    </g>
</svg>
