<svg width="55" height="42" viewBox="0 0 55 42" xmlns="http://www.w3.org/2000/svg">
    <title>
        Fill 3
    </title>
    <path d="M16.042 5.73a1.149 1.149 0 0 1-1.147 1.145h-2.29a1.147 1.147 0 1 1 0-2.292h2.292-.002c.305 0 .595.122.81.337.215.215.337.505.337.81zM55 3.437v34.376c0 1.899-1.538 3.437-3.438 3.437H3.438A3.437 3.437 0 0 1 0 37.812V3.438C0 1.538 1.538 0 3.438 0h48.124C53.462 0 55 1.538 55 3.438zm-2.292 8.02H2.292v26.355a1.147 1.147 0 0 0 1.146 1.146h48.125a1.147 1.147 0 0 0 1.145-1.145V11.457zm0-8.02a1.147 1.147 0 0 0-1.146-1.145H3.437c-.633 0-1.145.512-1.145 1.145v5.73h50.416v-5.73zM8.02 4.583H5.73a1.147 1.147 0 1 0 0 2.292h2.29a1.147 1.147 0 1 0 0-2.292zm13.75 0h-2.29a1.147 1.147 0 1 0 0 2.292h2.292-.002a1.147 1.147 0 1 0 0-2.292zm-5.728 22.343a9.746 9.746 0 0 1 2.647-6.692 9.745 9.745 0 0 1 6.519-3.047v-2.292c0-.632.513-1.145 1.147-1.145a12.603 12.603 0 0 1 12.603 12.605 1.147 1.147 0 0 1-1.145 1.145H35.52a9.734 9.734 0 0 1-5.117 8.29 9.74 9.74 0 0 1-14.36-8.864zM27.5 25.208h9.099a10.308 10.308 0 0 0-9.099-9.096v9.096zm-9.167 1.718a7.455 7.455 0 0 0 7.163 7.734 7.453 7.453 0 0 0 7.734-7.16h-6.875a1.147 1.147 0 0 1-1.148-1.145V19.48a7.435 7.435 0 0 0-6.875 7.446z" fill="#FFF" fill-rule="evenodd"/>
</svg>
