<?xml version="1.0" encoding="UTF-8"?><!DOCTYPE svg PUBLIC "-//W3C//DTD SVG 1.1//EN" "http://www.w3.org/Graphics/SVG/1.1/DTD/svg11.dtd"><svg xmlns="http://www.w3.org/2000/svg"><symbol id="icon-arrow" viewBox="0 0 11 7">
    <title>
        Fill 1
    </title>
    <path d="M10.3 1.452L8.879 0 5.175 3.96 1.389.085 0 1.574l5.208 5.325z" fill-rule="evenodd"/>
</symbol><symbol id="icon-facebook" viewBox="0 0 10 19">
    <title>
        facebook
    </title>
    <path d="M9.766.157v2.946H8.014c-.64 0-1.071.134-1.295.402-.223.268-.335.67-.335 1.205v2.11h3.27l-.435 3.303H6.384v8.471H2.97v-8.47H.123V6.82H2.97V4.387c0-1.384.387-2.457 1.161-3.22C4.904.404 5.934.023 7.222.023c1.093 0 1.941.045 2.544.134z" fill-rule="evenodd"/>
</symbol><symbol id="icon-search" viewBox="0 0 15 15">
    <title>
        Fill 1
    </title>
    <path d="M10.795 9.661L15 13.866 13.866 15l-4.205-4.205A6.013 6.013 0 1 1 6.014 0a6.013 6.013 0 0 1 4.781 9.661zm-4.781.763a4.41 4.41 0 1 0-.001-8.821 4.41 4.41 0 0 0 0 8.821z" fill-rule="evenodd"/>
</symbol></svg>