<svg width="55" height="41" viewBox="0 0 55 41" xmlns="http://www.w3.org/2000/svg">
    <title>
        Group 4
    </title>
    <g fill="none" fill-rule="nonzero" stroke="#FFF" stroke-width="2.2" fill-opacity="0">
        <path d="M3.846 1.1c-1.053 0-1.418.07-1.793.27a1.626 1.626 0 0 0-.682.683c-.2.375-.271.74-.271 1.793v33.308c0 1.053.07 1.418.27 1.793.16.297.386.523.683.682.375.2.74.271 1.793.271h47.308c1.053 0 1.418-.07 1.793-.27.297-.16.523-.386.682-.683.2-.375.271-.74.271-1.793V3.846c0-1.053-.07-1.418-.27-1.793a1.626 1.626 0 0 0-.683-.682c-.375-.2-.74-.271-1.793-.271H3.846z"/>
        <path d="M1.1 34.913l40.99 3.197L19.474 22.39a3.9 3.9 0 0 0-4.489.026L1.1 32.31v2.603z"/>
        <path d="M30.652 30.117l23.248-5.77v-1.716l-7.914-8.446c-.03-.033-.03-.033-.063-.066a2.9 2.9 0 0 0-4.1-.005l-14.035 14 2.864 2.003z"/>
        <circle cx="12" cy="12" r="3"/>
    </g>
</svg>
