<svg width="55" height="41" viewBox="0 0 55 41" xmlns="http://www.w3.org/2000/svg">
    <title>
        Group 2
    </title>
    <g fill-rule="nonzero" stroke="#FFF" stroke-width="2.2" fill="none">
        <path d="M3.846 1.1c-1.053 0-1.418.07-1.793.27a1.626 1.626 0 0 0-.682.683c-.2.375-.271.74-.271 1.793v33.308c0 1.053.07 1.418.27 1.793.16.297.386.523.683.682.375.2.74.271 1.793.271h47.308c1.053 0 1.418-.07 1.793-.27.297-.16.523-.386.682-.683.2-.375.271-.74.271-1.793V3.846c0-1.053-.07-1.418-.27-1.793a1.626 1.626 0 0 0-.683-.682c-.375-.2-.74-.271-1.793-.271H3.846z" fill="none"/>
        <path d="M16 12.5h30.829"/>
        <circle cx="10" cy="12" r="1"/>
        <circle cx="10" cy="20" r="1"/>
        <circle cx="10" cy="28.5" r="1"/>
        <path d="M16 28.5h30.829"/>
        <path d="M16 20.5h30.829"/>
    </g>
</svg>
