<?xml version="1.0" encoding="UTF-8"?><!DOCTYPE svg PUBLIC "-//W3C//DTD SVG 1.1//EN" "http://www.w3.org/Graphics/SVG/1.1/DTD/svg11.dtd"><svg xmlns="http://www.w3.org/2000/svg" xmlns:xlink="http://www.w3.org/1999/xlink"><defs>
        <path id="a" d="M295 891v-4h12v-12h4v12h12v4h-12v12h-4v-12z"/>
    </defs><symbol id="icon-add" viewBox="0 0 12 13">
    <path d="M6 .78a.695.695 0 0 0-.696.695v4.519H.785a.695.695 0 1 0 0 1.39h4.519v4.519a.695.695 0 1 0 1.39 0V7.384h4.519a.695.695 0 1 0 0-1.39H6.694V1.475A.695.695 0 0 0 5.999.78z"/>
</symbol><symbol id="icon-arrow-next" viewBox="0 0 21.373 40.417">
    <path d="M2.37.4A1.279 1.279 0 0 0 .546.366a1.317 1.317 0 0 0-.033 1.847l17.739 17.936L.513 38.085a1.3 1.3 0 0 0-.138 1.953 1.271 1.271 0 0 0 1.932-.138l18.7-18.844a1.3 1.3 0 0 0 0-1.811z"/>
</symbol><symbol id="icon-arrow-prev" viewBox="0 0 21.373 40.417">
    <path d="M19.003 40.017a1.279 1.279 0 0 0 1.824.034 1.317 1.317 0 0 0 .033-1.847L3.121 20.268 20.86 2.332a1.3 1.3 0 0 0 .138-1.953 1.271 1.271 0 0 0-1.932.138L.366 19.361a1.3 1.3 0 0 0 0 1.811z"/>
</symbol><symbol id="icon-arrow-up" viewBox="0 0 33.203 17.302">
    <path d="M.003 16.476l.841.826L16.421 1.655 32.36 16.947l.843-.826L16.421.002z"/>
</symbol><symbol id="icon-arrow" viewBox="0 0 11 7">
    <title>
        Fill 1
    </title>
    <path d="M10.3 1.452L8.879 0 5.175 3.96 1.389.085 0 1.574l5.208 5.325z" fill-rule="evenodd"/>
</symbol><symbol id="icon-close-thin" viewBox="0 0 27 27">
    <path d="M0 1.351L1.351 0 27 25.649 25.649 27z"/>
    <path d="M0 25.649L25.649 0 27 1.351 1.351 27z"/>
</symbol><symbol id="icon-close" viewBox="0 0 24 24">
    
    <use xlink:href="#a" transform="rotate(-45 -898.133 809.01)"/>
</symbol><symbol id="icon-download" viewBox="0 0 29 24">
    <title>
        Group 12
    </title>
    <g fill-rule="evenodd">
        <path d="M28.485 8.283h-2.3a.289.289 0 0 0-.289.287v12.55H2.877V8.57a.289.289 0 0 0-.289-.287h-2.3A.289.289 0 0 0 0 8.57v13.976c0 .786.646 1.426 1.439 1.426h25.896c.793 0 1.438-.64 1.438-1.426V8.57a.289.289 0 0 0-.288-.287z"/>
        <path d="M13.157 17.7c.271.27.634.415 1.02.415.379 0 .747-.152 1.019-.415l6.01-5.964a.566.566 0 0 0 0-.808l-1.218-1.213a.578.578 0 0 0-.816 0l-3.557 3.526V.573A.574.574 0 0 0 15.037 0H13.31a.578.578 0 0 0-.578.573v12.674L9.163 9.704a.578.578 0 0 0-.815 0L7.13 10.916a.566.566 0 0 0 0 .809l6.027 5.975z"/>
    </g>
</symbol><symbol id="icon-eye" viewBox="0 0 20 14">
    <path d="M9.998 11.107a4.025 4.025 0 0 1-4.05-4.05 4.025 4.025 0 0 1 4.05-4.051 4.025 4.025 0 0 1 4.05 4.05 4.025 4.025 0 0 1-4.05 4.05zm0-10.417C4.212.69.16 7.056.16 7.056s2.951 6.366 9.838 6.366c6.945 0 9.839-6.366 9.839-6.366S15.844.69 9.998.69z"/>
    <path d="M11.732 7.056a1.736 1.736 0 1 1-3.471.001 1.736 1.736 0 0 1 3.471 0"/>
</symbol><symbol id="icon-fab-filter" viewBox="0 0 34 23">
    <path d="M6.169 9.49h21.666v3.728H6.17zM33.854.52v3.611H.15V.52zM13.391 18.576h7.222v3.61h-7.222z"/>
</symbol><symbol id="icon-facebook" viewBox="0 0 10 19">
    <title>
        facebook
    </title>
    <path d="M9.766.157v2.946H8.014c-.64 0-1.071.134-1.295.402-.223.268-.335.67-.335 1.205v2.11h3.27l-.435 3.303H6.384v8.471H2.97v-8.47H.123V6.82H2.97V4.387c0-1.384.387-2.457 1.161-3.22C4.904.404 5.934.023 7.222.023c1.093 0 1.941.045 2.544.134z" fill-rule="evenodd"/>
</symbol><symbol id="icon-search" viewBox="0 0 15 15">
    <title>
        Fill 1
    </title>
    <path d="M10.795 9.661L15 13.866 13.866 15l-4.205-4.205A6.013 6.013 0 1 1 6.014 0a6.013 6.013 0 0 1 4.781 9.661zm-4.781.763a4.41 4.41 0 1 0-.001-8.821 4.41 4.41 0 0 0 0 8.821z" fill-rule="evenodd"/>
</symbol></svg>